<?xml version="1.0" encoding="utf-8"?>
<!-- Generator: Adobe Illustrator 28.1.0, SVG Export Plug-In . SVG Version: 6.00 Build 0)  -->
<svg version="1.1" id="Layer_1" xmlns="http://www.w3.org/2000/svg" xmlns:xlink="http://www.w3.org/1999/xlink" x="0px" y="0px"
	 viewBox="0 0 86 85" style="enable-background:new 0 0 86 85;" xml:space="preserve">
<style type="text/css">
	.st0{fill:url(#SVGID_1_);}
	.st1{fill:url(#SVGID_00000142856708036455808410000007046478310652864934_);}
</style>
<linearGradient id="SVGID_1_" gradientUnits="userSpaceOnUse" x1="43.2353" y1="85.6082" x2="43.2353" y2="1.4207" gradientTransform="matrix(1 0 0 -1 0 86)">
	<stop  offset="0" style="stop-color:#3D4147"/>
	<stop  offset="1" style="stop-color:#2C2F35"/>
</linearGradient>
<path class="st0" d="M21.1,0.4h44.2c11,0,20,9,20,20v44.2c0,11-9,20-20,20H21.1c-11,0-20-9-20-20V20.4C1.1,9.3,10.1,0.4,21.1,0.4z"
	/>
<linearGradient id="SVGID_00000179637683820896805960000003958402041092417725_" gradientUnits="userSpaceOnUse" x1="73.7647" y1="42.4855" x2="12.5654" y2="42.4855">
	<stop  offset="0" style="stop-color:#CAB286"/>
	<stop  offset="0.3547" style="stop-color:#CAB086"/>
	<stop  offset="0.506" style="stop-color:#CAA987"/>
	<stop  offset="0.6186" style="stop-color:#CB9C88"/>
	<stop  offset="0.7121" style="stop-color:#CB8B89"/>
	<stop  offset="0.7936" style="stop-color:#CB738A"/>
	<stop  offset="0.8669" style="stop-color:#CC578D"/>
	<stop  offset="0.9334" style="stop-color:#CD358F"/>
	<stop  offset="0.9939" style="stop-color:#CE0F92"/>
	<stop  offset="1" style="stop-color:#CE0B92"/>
</linearGradient>
<path style="fill:url(#SVGID_00000179637683820896805960000003958402041092417725_);" d="M49.6,52.7c4.9,0,8.9-4,8.9-8.9V28.5
	c0-4.9-4-8.9-8.9-8.9H24.3C29,14.9,35.7,12,43.2,12c12.7,0,22.9,10.3,22.9,22.9l7.6,14v1.3c0,0.7-0.6,1.4-1.2,1.5l-5.1,1l-0.9,7.7
	c-0.3,2.8-2.9,5.1-5.7,5.1h-10L48.3,73H28V57.6c-1.6-1.5-3.1-3.1-4.4-4.9H49.6z M45.6,38h-2.2l1.1-3.7L45.6,38z M29.2,31.7H17.9
	l-5.2-8.1l3.2-2.1l4.1,6.4h9.3c0.3-2.5,2.4-4.5,5-4.5h15.3c2.8,0,5.1,2.3,5.1,5.1v15.3c0,2.8-2.3,5.1-5.1,5.1H34.3
	c-2.6,0-4.7-2-5-4.5H20l-4.1,6.4l-3.2-2.1l5.2-8.1h11.3V38H12.7v-3.8h16.5V31.7z M42.1,42.5l0.6-1.9h3.7l0.6,1.9h2.7l-3.8-12.7h-2.5
	l-3.8,12.7H42.1z M34.3,42.5h2.5V29.8h-2.5V42.5z"/>
</svg>
